<?xml version="1.0" encoding="utf-8"?>
<!-- Generator: Adobe Illustrator 27.5.0, SVG Export Plug-In . SVG Version: 6.00 Build 0)  -->
<svg version="1.1" xmlns="http://www.w3.org/2000/svg" xmlns:xlink="http://www.w3.org/1999/xlink" x="0px" y="0px"
	 viewBox="0 0 750 500" style="enable-background:new 0 0 750 500;" xml:space="preserve">
<g id="BACKGROUND">
	<linearGradient id="SVGID_1_" gradientUnits="userSpaceOnUse" x1="375" y1="500" x2="375" y2="-9.094947e-13">
		<stop  offset="0" style="stop-color:#000"/>
		<stop  offset="1" style="stop-color:#000"/>
	</linearGradient>
	<rect style="fill:url(#SVGID_1_);" width="750" height="500"/>
</g>
<g id="OBJECTS">
	<g>
		<defs>
			<rect id="SVGID_00000078008451690701804170000009110069941547185836_" width="750" height="500"/>
		</defs>
		<clipPath id="SVGID_00000181057272061549556670000009625023188028885672_">
			<use xlink:href="#SVGID_00000078008451690701804170000009110069941547185836_"  style="overflow:visible;"/>
		</clipPath>
		<g style="clip-path:url(#SVGID_00000181057272061549556670000009625023188028885672_);">
			<g>
				
					<linearGradient id="SVGID_00000130644170456848127110000017306967217606981035_" gradientUnits="userSpaceOnUse" x1="226.2803" y1="435.3803" x2="350.4389" y2="311.2216" gradientTransform="matrix(0.9204 0.3909 -0.3909 0.9204 146.3127 -59.0717)">
					<stop  offset="0" style="stop-color:#666666"/>
					<stop  offset="0.5255" style="stop-color:#3c3c3c"/>
					<stop  offset="1" style="stop-color:#212121"/>
				</linearGradient>
				<path style="fill:url(#SVGID_00000130644170456848127110000017306967217606981035_);" d="M313.357,468.396l0.011,0.004
					l17.559-144.336l-28.853-12.253l-28.852-12.254l-91.671,112.861l0.011,0.005c-0.59,0.585-1.059,1.233-1.369,1.963
					c-4.379,10.312,21.777,31.287,58.422,46.85c36.645,15.563,69.902,19.82,74.281,9.508
					C313.206,470.014,313.346,469.226,313.357,468.396z"/>
				
					<linearGradient id="SVGID_00000054965889267235345910000004797784672081215626_" gradientUnits="userSpaceOnUse" x1="283.7237" y1="293.2254" x2="292.9945" y2="267.7541" gradientTransform="matrix(0.9204 0.3909 -0.3909 0.9204 146.3127 -59.0717)">
					<stop  offset="0" style="stop-color:#666666"/>
					<stop  offset="0.5255" style="stop-color:#3c3c3c"/>
					<stop  offset="1" style="stop-color:#212121"/>
				</linearGradient>
				<path style="fill:url(#SVGID_00000054965889267235345910000004797784672081215626_);" d="M330.927,324.064
					c-1.904,4.484-16.366,2.633-32.301-4.135c-15.935-6.767-27.309-15.888-25.404-20.372c1.904-4.484,16.366-2.633,32.301,4.134
					C321.458,310.459,332.832,319.58,330.927,324.064z"/>
			</g>
			<g>
				
					<linearGradient id="SVGID_00000127037195762399504800000004183803511679348877_" gradientUnits="userSpaceOnUse" x1="603.0036" y1="119.6585" x2="671.1832" y2="51.479" gradientTransform="matrix(0.5663 -0.8242 0.8242 0.5663 306.6489 740.3315)">
					<stop  offset="0" style="stop-color:#666666"/>
					<stop  offset="0.5255" style="stop-color:#3c3c3c"/>
					<stop  offset="1" style="stop-color:#212121"/>
				</linearGradient>
				<path style="fill:url(#SVGID_00000127037195762399504800000004183803511679348877_);" d="M780.443,241.381l0.004-0.006
					l-87.957-18.277l-4.367,6.355l-4.367,6.355l48.6,75.554l0.004-0.006c0.27,0.412,0.591,0.761,0.979,1.027
					c5.475,3.762,20.751-8.961,34.12-28.417c13.369-19.456,19.768-38.279,14.293-42.041
					C781.365,241.66,780.924,241.486,780.443,241.381z"/>
				
					<linearGradient id="SVGID_00000162335211502083554430000000426841842569345926_" gradientUnits="userSpaceOnUse" x1="635.9539" y1="28.233" x2="638.2342" y2="21.968" gradientTransform="matrix(0.5663 -0.8242 0.8242 0.5663 306.6489 740.3315)">
					<stop  offset="0" style="stop-color:#666666"/>
					<stop  offset="0.5255" style="stop-color:#3c3c3c"/>
					<stop  offset="1" style="stop-color:#212121"/>
				</linearGradient>
				<path style="fill:url(#SVGID_00000162335211502083554430000000426841842569345926_);" d="M692.49,223.098
					c0.988,0.679-0.167,4.074-2.578,7.584c-2.412,3.51-5.167,5.805-6.155,5.126c-0.988-0.679,0.167-4.074,2.579-7.584
					C688.747,224.714,691.502,222.419,692.49,223.098z"/>
			</g>
			<g>
				
					<linearGradient id="SVGID_00000015330853565015363180000013559599809056901789_" gradientUnits="userSpaceOnUse" x1="266.3624" y1="-513.403" x2="334.541" y2="-581.5816" gradientTransform="matrix(0.465 -0.8853 0.8853 0.465 364.0901 910.7517)">
					<stop  offset="0" style="stop-color:#666666"/>
					<stop  offset="0.5255" style="stop-color:#3c3c3c"/>
					<stop  offset="1" style="stop-color:#212121"/>
				</linearGradient>
				<path style="fill:url(#SVGID_00000015330853565015363180000013559599809056901789_);" d="M58.654,362.996l0.003-0.006
					l-89.5-7.755l-3.585,6.827l-3.585,6.827l57.188,69.282l0.004-0.006c0.317,0.377,0.677,0.686,1.093,0.904
					c5.881,3.089,19.547-11.35,30.523-32.25c10.976-20.9,15.106-40.346,9.225-43.435C59.603,363.164,59.144,363.043,58.654,362.996z
					"/>
				
					<linearGradient id="SVGID_00000084530690062535418410000017191361535488093880_" gradientUnits="userSpaceOnUse" x1="299.3098" y1="-604.8281" x2="301.5905" y2="-611.0941" gradientTransform="matrix(0.465 -0.8853 0.8853 0.465 364.0901 910.7517)">
					<stop  offset="0" style="stop-color:#666666"/>
					<stop  offset="0.5255" style="stop-color:#3c3c3c"/>
					<stop  offset="1" style="stop-color:#212121"/>
				</linearGradient>
				<path style="fill:url(#SVGID_00000084530690062535418410000017191361535488093880_);" d="M-30.843,355.235
					c1.061,0.557,0.316,4.065-1.664,7.836c-1.98,3.77-4.445,6.375-5.506,5.818c-1.061-0.557-0.316-4.065,1.664-7.836
					C-34.37,357.282-31.904,354.677-30.843,355.235z"/>
			</g>
			
				<linearGradient id="SVGID_00000180335137082035925920000010215791962611025300_" gradientUnits="userSpaceOnUse" x1="203.5666" y1="256.5292" x2="279.1044" y2="256.5292" gradientTransform="matrix(0.7071 -0.7071 0.7071 0.7071 -122.8377 238.1687)">
				<stop  offset="0" style="stop-color:#666666"/>
				<stop  offset="0.5255" style="stop-color:#3c3c3c"/>
				<stop  offset="1" style="stop-color:#FFFFFF"/>
			</linearGradient>
			<circle style="fill:url(#SVGID_00000180335137082035925920000010215791962611025300_);" cx="229.202" cy="248.912" r="37.769"/>
			
				<linearGradient id="SVGID_00000059288859325934056480000008757586424119285896_" gradientUnits="userSpaceOnUse" x1="520.1307" y1="442.4297" x2="576.1921" y2="442.4297" gradientTransform="matrix(0.7071 -0.7071 0.7071 0.7071 -122.8377 238.1687)">
				<stop  offset="0" style="stop-color:#666666"/>
				<stop  offset="0.5255" style="stop-color:#3c3c3c"/>
				<stop  offset="1" style="stop-color:#FFFFFF"/>
			</linearGradient>
			<circle style="fill:url(#SVGID_00000059288859325934056480000008757586424119285896_);" cx="577.609" cy="163.406" r="28.03"/>
			
				<linearGradient id="SVGID_00000073721892790828839990000008724090745169618615_" gradientUnits="userSpaceOnUse" x1="335.7311" y1="526.631" x2="370.4463" y2="526.631" gradientTransform="matrix(0.7071 -0.7071 0.7071 0.7071 -122.8377 238.1687)">
				<stop  offset="0" style="stop-color:#666666"/>
				<stop  offset="0.5255" style="stop-color:#3c3c3c"/>
				<stop  offset="1" style="stop-color:#FFFFFF"/>
			</linearGradient>
			<path style="fill:url(#SVGID_00000073721892790828839990000008724090745169618615_);" d="M511.486,348.607
				c6.779,6.779,6.779,17.769,0,24.547c-6.779,6.779-17.769,6.779-24.547,0c-6.779-6.779-6.779-17.769,0-24.547
				S504.707,341.828,511.486,348.607z"/>
			
				<linearGradient id="SVGID_00000003791649989249358110000011178028112455398567_" gradientUnits="userSpaceOnUse" x1="699.0645" y1="487.3406" x2="765.7766" y2="487.3406" gradientTransform="matrix(0.7071 -0.7071 0.7071 0.7071 -122.8377 238.1687)">
				<stop  offset="0" style="stop-color:#666666"/>
				<stop  offset="0.5255" style="stop-color:#3c3c3c"/>
				<stop  offset="1" style="stop-color:#FFFFFF"/>
			</linearGradient>
			<circle style="fill:url(#SVGID_00000003791649989249358110000011178028112455398567_);" cx="739.655" cy="64.873" r="33.356"/>
			
				<linearGradient id="SVGID_00000179644525114707429400000011650344984962295226_" gradientUnits="userSpaceOnUse" x1="238.8487" y1="164.143" x2="264.2543" y2="164.143" gradientTransform="matrix(0.7071 -0.7071 0.7071 0.7071 -122.8377 238.1687)">
				<stop  offset="0" style="stop-color:#666666"/>
				<stop  offset="0.5255" style="stop-color:#3c3c3c"/>
				<stop  offset="1" style="stop-color:#FFFFFF"/>
			</linearGradient>
			<circle style="fill:url(#SVGID_00000179644525114707429400000011650344984962295226_);" cx="171.1" cy="176.362" r="12.703"/>
			
				<linearGradient id="SVGID_00000065039103210658170660000016072973913520946078_" gradientUnits="userSpaceOnUse" x1="106.4637" y1="301.5447" x2="146.201" y2="301.5447" gradientTransform="matrix(0.7071 -0.7071 0.7071 0.7071 -122.8377 238.1687)">
				<stop  offset="0" style="stop-color:#666666"/>
				<stop  offset="0.5255" style="stop-color:#3c3c3c"/>
				<stop  offset="1" style="stop-color:#FFFFFF"/>
			</linearGradient>
			<circle style="fill:url(#SVGID_00000065039103210658170660000016072973913520946078_);" cx="179.714" cy="362.061" r="19.868"/>
			<g>
				
					<linearGradient id="SVGID_00000026138634637660149910000005870065026853981313_" gradientUnits="userSpaceOnUse" x1="532.6818" y1="302.7083" x2="618.296" y2="217.094" gradientTransform="matrix(0.882 0.4712 -0.4712 0.882 164.1043 -222.7962)">
					<stop  offset="0" style="stop-color:#666666"/>
					<stop  offset="0.5255" style="stop-color:#3c3c3c"/>
					<stop  offset="1" style="stop-color:#212121"/>
				</linearGradient>
				<polygon style="fill:url(#SVGID_00000026138634637660149910000005870065026853981313_);" points="566.805,335.534 
					491.293,295.192 531.635,219.68 607.147,260.022 				"/>
				
					<linearGradient id="SVGID_00000032617224856835988270000001238160845360503693_" gradientUnits="userSpaceOnUse" x1="575.4888" y1="259.9013" x2="618.296" y2="217.094" gradientTransform="matrix(0.882 0.4712 -0.4712 0.882 164.1043 -222.7962)">
					<stop  offset="0" style="stop-color:#000000"/>
					<stop  offset="1" style="stop-color:#000000"/>
				</linearGradient>
				<polygon style="fill:url(#SVGID_00000032617224856835988270000001238160845360503693_);" points="566.805,335.534 
					604.817,261.046 531.635,219.68 607.147,260.022 				"/>
				
					<linearGradient id="SVGID_00000010992768126659557930000013782145035794628282_" gradientUnits="userSpaceOnUse" x1="619.9269" y1="225.6212" x2="525.7609" y2="275.3159" gradientTransform="matrix(-0.5547 -0.2964 -0.4712 0.882 1051.1423 250.6501)">
					<stop  offset="0" style="stop-color:#666666"/>
					<stop  offset="0.5255" style="stop-color:#3c3c3c"/>
					<stop  offset="1" style="stop-color:#212121"/>
				</linearGradient>
				<polygon style="fill:url(#SVGID_00000010992768126659557930000013782145035794628282_);" points="566.805,335.534 
					623.583,343.523 663.925,268.011 607.147,260.022 				"/>
				
					<linearGradient id="SVGID_00000114059285627564638210000011604708920410974363_" gradientUnits="userSpaceOnUse" x1="537.4677" y1="179.8484" x2="666.6901" y2="278.8288" gradientTransform="matrix(0.882 0.4712 0.1085 -0.203 41.8632 6.7019)">
					<stop  offset="0" style="stop-color:#666666"/>
					<stop  offset="0.5255" style="stop-color:#3c3c3c"/>
					<stop  offset="1" style="stop-color:#212121"/>
				</linearGradient>
				<polygon style="fill:url(#SVGID_00000114059285627564638210000011604708920410974363_);" points="663.925,268.011 
					588.413,227.67 531.635,219.68 607.147,260.022 				"/>
			</g>
			<g>
				
					<linearGradient id="SVGID_00000098196631893096243460000011729912081296761223_" gradientUnits="userSpaceOnUse" x1="38.1501" y1="466.2007" x2="110.163" y2="394.1878" gradientTransform="matrix(-0.7481 -0.6636 0.6636 -0.7481 -169.5029 668.566)">
					<stop  offset="0" style="stop-color:#666666"/>
					<stop  offset="0.5255" style="stop-color:#3c3c3c"/>
					<stop  offset="1" style="stop-color:#212121"/>
				</linearGradient>
				<polygon style="fill:url(#SVGID_00000098196631893096243460000011729912081296761223_);" points="57.457,246.697 
					111.328,294.487 63.538,348.358 9.667,300.568 				"/>
				
					<linearGradient id="SVGID_00000174590717022364173730000003672691698663445658_" gradientUnits="userSpaceOnUse" x1="74.155" y1="430.1959" x2="110.163" y2="394.1878" gradientTransform="matrix(-0.7481 -0.6636 0.6636 -0.7481 -169.5029 668.566)">
					<stop  offset="0" style="stop-color:#000000"/>
					<stop  offset="0.0946" style="stop-color:#212121"/>
					<stop  offset="0.1639" style="stop-color:#212121"/>
					<stop  offset="0.2252" style="stop-color:#caf0f8"/>
					<stop  offset="0.2817" style="stop-color:#caf0f8"/>
					<stop  offset="0.3351" style="stop-color:#caf0f8"/>
					<stop  offset="0.386" style="stop-color:#ade8f4"/>
					<stop  offset="0.4351" style="stop-color:#90e0ef"/>
					<stop  offset="0.4814" style="stop-color:#48cae4"/>
					<stop  offset="0.5225" style="stop-color:#00b4d8"/>
					<stop  offset="0.555" style="stop-color:#48cae4"/>
					<stop  offset="0.6002" style="stop-color:#90e0ef"/>
					<stop  offset="0.6476" style="stop-color:#ade8f4"/>
					<stop  offset="0.6966" style="stop-color:#caf0f8"/>
					<stop  offset="0.7474" style="stop-color:#caf0f8"/>
					<stop  offset="0.8006" style="stop-color:#caf0f8"/>
					<stop  offset="0.8573" style="stop-color:#212121"/>
					<stop  offset="0.9199" style="stop-color:#212121"/>
					<stop  offset="1" style="stop-color:#000000"/>
				</linearGradient>
				<polygon style="fill:url(#SVGID_00000174590717022364173730000003672691698663445658_);" points="57.457,246.697 
					11.773,300.186 63.538,348.358 9.667,300.568 				"/>
				
					<linearGradient id="SVGID_00000106845565867323045230000014533436848857523328_" gradientUnits="userSpaceOnUse" x1="1426.124" y1="400.6834" x2="1346.921" y2="442.4817" gradientTransform="matrix(0.4705 0.4174 0.6636 -0.7481 -921.0001 1.4559)">
					<stop  offset="0" style="stop-color:#666666"/>
					<stop  offset="0.5255" style="stop-color:#3c3c3c"/>
					<stop  offset="1" style="stop-color:#212121"/>
				</linearGradient>
				<polygon style="fill:url(#SVGID_00000106845565867323045230000014533436848857523328_);" points="57.457,246.697 
					12.575,229.041 -35.215,282.912 9.667,300.568 				"/>
				
					<linearGradient id="SVGID_00000085224548823802725670000017772458501972451775_" gradientUnits="userSpaceOnUse" x1="42.6275" y1="-590.9866" x2="151.3059" y2="-507.7423" gradientTransform="matrix(-0.7481 -0.6636 -0.1528 0.1722 2.7592 474.5827)">
					<stop  offset="0" style="stop-color:#666666"/>
					<stop  offset="0.5255" style="stop-color:#3c3c3c"/>
					<stop  offset="1" style="stop-color:#212121"/>
				</linearGradient>
				<polygon style="fill:url(#SVGID_00000085224548823802725670000017772458501972451775_);" points="-35.215,282.912 
					18.656,330.702 63.538,348.358 9.667,300.568 				"/>
			</g>
			<g>
				
					<linearGradient id="SVGID_00000018197893492924081000000003306936128289528508_" gradientUnits="userSpaceOnUse" x1="659.4611" y1="211.5441" x2="755.1794" y2="115.8257" gradientTransform="matrix(0.8671 -0.4982 0.4982 0.8671 16.3702 368.1411)">
					<stop  offset="0" style="stop-color:#666666"/>
					<stop  offset="0.4044" style="stop-color:#00b4d8"/>
					<stop  offset="1" style="stop-color:#90e0ef"/>
				</linearGradient>
				<path style="fill:url(#SVGID_00000018197893492924081000000003306936128289528508_);" d="M792.176,111.178
					c5.797,10.09-25.741,39.091-70.443,64.776c-44.702,25.685-85.64,38.328-91.437,28.239
					c-5.797-10.089,25.741-39.091,70.443-64.776C745.44,113.731,786.379,101.088,792.176,111.178z"/>
				
					<linearGradient id="SVGID_00000167356879792532053330000016515921444132319365_" gradientUnits="userSpaceOnUse" x1="657.6099" y1="219.4671" x2="757.031" y2="120.0461" gradientTransform="matrix(0.8671 -0.4982 0.4982 0.8671 16.3702 368.1411)">
					<stop  offset="0" style="stop-color:#212121"/>
					<stop  offset="0.4745" style="stop-color:#3c3c3c"/>
					<stop  offset="1" style="stop-color:#666666"/>
				</linearGradient>
				<path style="fill:url(#SVGID_00000167356879792532053330000016515921444132319365_);" d="M721.732,175.954
					c-44.702,25.685-85.64,38.328-91.437,28.239l4.87,8.475c5.797,10.089,46.735-2.553,91.437-28.239
					c44.702-25.686,76.241-54.687,70.443-64.776l-4.87-8.475C797.973,121.267,766.435,150.269,721.732,175.954z"/>
			</g>
			<g>
				
					<linearGradient id="SVGID_00000003064961918623284530000009103725540749962396_" gradientUnits="userSpaceOnUse" x1="167.6352" y1="-152.9178" x2="230.7273" y2="-216.01" gradientTransform="matrix(0.285 0.9585 -0.9585 0.285 -89.543 123.083)">
					<stop  offset="0" style="stop-color:#666666"/>
					<stop  offset="0.4044" style="stop-color:#00b4d8"/>
					<stop  offset="1" style="stop-color:#90e0ef"/>
				</linearGradient>
				<path style="fill:url(#SVGID_00000003064961918623284530000009103725540749962396_);" d="M161.568,320.403
					c-7.352,2.186-21.163-22.447-30.848-55.019s-11.576-60.749-4.225-62.935c7.352-2.186,21.163,22.447,30.848,55.019
					C167.029,290.04,168.92,318.217,161.568,320.403z"/>
				
					<linearGradient id="SVGID_00000034082962625595542600000016016853775913640123_" gradientUnits="userSpaceOnUse" x1="166.4148" y1="-147.6953" x2="231.9477" y2="-213.2282" gradientTransform="matrix(0.285 0.9585 -0.9585 0.285 -89.543 123.083)">
					<stop  offset="0" style="stop-color:#212121"/>
					<stop  offset="0.4745" style="stop-color:#3c3c3c"/>
					<stop  offset="1" style="stop-color:#666666"/>
				</linearGradient>
				<path style="fill:url(#SVGID_00000034082962625595542600000016016853775913640123_);" d="M130.721,265.384
					c-9.685-32.572-11.576-60.749-4.225-62.935l-6.175,1.836c-7.352,2.186-5.46,30.363,4.225,62.935
					c9.685,32.572,23.496,57.205,30.848,55.019l6.176-1.836C154.217,322.589,140.406,297.956,130.721,265.384z"/>
			</g>
			<g>
				
					<linearGradient id="SVGID_00000100376800220941506500000017664270570263911809_" gradientUnits="userSpaceOnUse" x1="543.9899" y1="108.6392" x2="642.7753" y2="9.8538" gradientTransform="matrix(0.9423 0.3347 -0.3347 0.9423 60.1535 -185.8534)">
					<stop  offset="0" style="stop-color:#666666"/>
					<stop  offset="0.4044" style="stop-color:#00b4d8"/>
					<stop  offset="1" style="stop-color:#90e0ef"/>
				</linearGradient>
				<path style="fill:url(#SVGID_00000100376800220941506500000017664270570263911809_);" d="M606.746,48.09
					c-50.137-17.808-94.039-23.071-98.059-11.754c-4.019,11.316,33.366,34.926,83.504,52.734
					c50.137,17.808,94.04,23.07,98.059,11.754S656.883,65.898,606.746,48.09z M593.536,85.28
					c-46.238-16.423-81.066-37.214-77.79-46.437c3.276-9.223,43.415-3.387,89.653,13.036c46.238,16.423,81.066,37.214,77.79,46.437
					C679.914,107.54,639.775,101.703,593.536,85.28z"/>
				
					<linearGradient id="SVGID_00000111181324459733208900000017784642276598222506_" gradientUnits="userSpaceOnUse" x1="504.5348" y1="52.2505" x2="682.2303" y2="52.2505" gradientTransform="matrix(0.9423 0.3347 -0.3347 0.9423 60.1535 -185.8534)">
					<stop  offset="0" style="stop-color:#212121"/>
					<stop  offset="0.4745" style="stop-color:#3c3c3c"/>
					<stop  offset="1" style="stop-color:#666666"/>
				</linearGradient>
				<path style="fill:url(#SVGID_00000111181324459733208900000017784642276598222506_);" d="M516.362,43.02
					c10.769-4.661,46.348,1.613,86.541,15.889c40.193,14.276,71.758,31.85,77.174,42.26c1.62-0.701,2.684-1.647,3.112-2.853
					c3.276-9.223-31.552-30.014-77.79-46.437c-46.238-16.423-86.377-22.26-89.653-13.036
					C515.318,40.049,515.547,41.454,516.362,43.02z"/>
				
					<linearGradient id="SVGID_00000065054008766798521930000012540588727297451918_" gradientUnits="userSpaceOnUse" x1="542.0793" y1="116.8162" x2="644.686" y2="14.2094" gradientTransform="matrix(0.9423 0.3347 -0.3347 0.9423 60.1535 -185.8534)">
					<stop  offset="0" style="stop-color:#212121"/>
					<stop  offset="0.4745" style="stop-color:#3c3c3c"/>
					<stop  offset="1" style="stop-color:#666666"/>
				</linearGradient>
				<path style="fill:url(#SVGID_00000065054008766798521930000012540588727297451918_);" d="M592.19,89.07
					c-50.137-17.808-87.523-41.418-83.504-52.734l-3.376,9.506c-4.019,11.316,33.366,34.926,83.503,52.734
					c50.137,17.808,94.04,23.07,98.059,11.754l3.376-9.506C686.23,112.14,642.328,106.877,592.19,89.07z"/>
				
					<linearGradient id="SVGID_00000074430782968935784740000014464015545172686525_" gradientUnits="userSpaceOnUse" x1="534.0652" y1="78.6862" x2="629.0117" y2="78.6862" gradientTransform="matrix(0.9423 0.3347 -0.3347 0.9423 60.1535 -185.8534)">
					<stop  offset="0" style="stop-color:#000000"/>
					<stop  offset="0.0946" style="stop-color:#212121"/>
					<stop  offset="0.1639" style="stop-color:#212121"/>
					<stop  offset="0.2252" style="stop-color:#caf0f8"/>
					<stop  offset="0.2817" style="stop-color:#caf0f8"/>
					<stop  offset="0.3351" style="stop-color:#caf0f8"/>
					<stop  offset="0.386" style="stop-color:#ade8f4"/>
					<stop  offset="0.4351" style="stop-color:#90e0ef"/>
					<stop  offset="0.4814" style="stop-color:#48cae4"/>
					<stop  offset="0.5225" style="stop-color:#00b4d8"/>
					<stop  offset="0.555" style="stop-color:#48cae4"/>
					<stop  offset="0.6002" style="stop-color:#90e0ef"/>
					<stop  offset="0.6476" style="stop-color:#ade8f4"/>
					<stop  offset="0.6966" style="stop-color:#caf0f8"/>
					<stop  offset="0.7474" style="stop-color:#caf0f8"/>
					<stop  offset="0.8006" style="stop-color:#caf0f8"/>
					<stop  offset="0.8573" style="stop-color:#212121"/>
					<stop  offset="0.9199" style="stop-color:#212121"/>
					<stop  offset="0" style="stop-color:#000000"/>
				</linearGradient>
				<path style="fill:url(#SVGID_00000074430782968935784740000014464015545172686525_);" d="M626.278,99.547
					c-3.809-1.094-7.615-2.187-11.393-3.375c-3.796-1.155-7.574-2.369-11.334-3.632c-7.523-2.518-14.998-5.18-22.384-8.07
					c-7.411-2.827-14.723-5.905-21.965-9.143c-3.62-1.62-7.211-3.306-10.772-5.054c-3.57-1.719-7.09-3.539-10.592-5.4
					c14.443,8.195,33.269,16.709,54.352,24.197C604.051,93.282,615.561,96.791,626.278,99.547z"/>
			</g>
			<g>
				
					<linearGradient id="SVGID_00000077322902159488342760000004139041912351186339_" gradientUnits="userSpaceOnUse" x1="5.9062" y1="507.2738" x2="95.4228" y2="417.7573" gradientTransform="matrix(0.3983 -0.9173 2.0255 0.8795 -866.0128 89.8362)">
					<stop  offset="0" style="stop-color:#666666"/>
					<stop  offset="0.4044" style="stop-color:#00b4d8"/>
					<stop  offset="1" style="stop-color:#90e0ef"/>
				</linearGradient>
				<path style="fill:url(#SVGID_00000077322902159488342760000004139041912351186339_);" d="M51.079,432.814
					c-19.204,44.228-16.902,87.84,5.141,97.412c22.043,9.571,55.481-18.523,74.685-62.751s16.902-87.84-5.141-97.412
					C103.721,360.492,70.283,388.586,51.079,432.814z M123.523,464.269c-17.71,40.788-46.632,67.529-64.599,59.728
					c-17.966-7.801-18.174-47.191-0.463-87.979c17.711-40.788,46.632-67.53,64.599-59.728
					C141.026,384.092,141.234,423.481,123.523,464.269z"/>
				
					<linearGradient id="SVGID_00000029046659888079131490000001610216273993692812_" gradientUnits="userSpaceOnUse" x1="-29.8474" y1="456.1753" x2="131.1763" y2="456.1753" gradientTransform="matrix(0.3983 -0.9173 2.0255 0.8795 -866.0128 89.8362)">
					<stop  offset="0" style="stop-color:#212121"/>
					<stop  offset="0.4745" style="stop-color:#3c3c3c"/>
					<stop  offset="1" style="stop-color:#666666"/>
				</linearGradient>
				<path style="fill:url(#SVGID_00000029046659888079131490000001610216273993692812_);" d="M66.485,525.326
					c-11.579-13.513-9.726-47.906,5.67-83.362c15.395-35.456,39.26-60.292,57.038-61.057c-1.742-2.032-3.784-3.597-6.133-4.617
					c-17.966-7.801-46.888,18.94-64.599,59.728c-17.711,40.788-17.503,80.178,0.463,87.979
					C61.273,525.018,63.811,525.442,66.485,525.326z"/>
				
					<linearGradient id="SVGID_00000020365221888898084570000015596207016184845749_" gradientUnits="userSpaceOnUse" x1="4.1748" y1="514.684" x2="97.1543" y2="421.7045" gradientTransform="matrix(0.3983 -0.9173 2.0255 0.8795 -866.0128 89.8362)">
					<stop  offset="0" style="stop-color:#212121"/>
					<stop  offset="0.4745" style="stop-color:#3c3c3c"/>
					<stop  offset="1" style="stop-color:#666666"/>
				</linearGradient>
				<path style="fill:url(#SVGID_00000020365221888898084570000015596207016184845749_);" d="M130.905,467.475
					c-19.204,44.227-52.641,72.322-74.685,62.751l18.516,8.04c22.043,9.571,55.481-18.523,74.685-62.751
					c19.204-44.228,16.902-87.84-5.141-97.412l-18.516-8.04C147.807,379.634,150.109,423.247,130.905,467.475z"/>
				
					<linearGradient id="SVGID_00000105414598067571638500000007914055760217759655_" gradientUnits="userSpaceOnUse" x1="-3.0875" y1="480.1319" x2="82.9508" y2="480.1319" gradientTransform="matrix(0.3983 -0.9173 2.0255 0.8795 -866.0128 89.8362)">
					<stop  offset="0" style="stop-color:#000000"/>
					<stop  offset="0.0946" style="stop-color:#212121"/>
					<stop  offset="0.1639" style="stop-color:#212121"/>
					<stop  offset="0.2252" style="stop-color:#caf0f8"/>
					<stop  offset="0.2817" style="stop-color:#caf0f8"/>
					<stop  offset="0.3351" style="stop-color:#caf0f8"/>
					<stop  offset="0.386" style="stop-color:#ade8f4"/>
					<stop  offset="0.4351" style="stop-color:#90e0ef"/>
					<stop  offset="0.4814" style="stop-color:#48cae4"/>
					<stop  offset="0.5225" style="stop-color:#00b4d8"/>
					<stop  offset="0.555" style="stop-color:#48cae4"/>
					<stop  offset="0.6002" style="stop-color:#90e0ef"/>
					<stop  offset="0.6476" style="stop-color:#ade8f4"/>
					<stop  offset="0.6966" style="stop-color:#caf0f8"/>
					<stop  offset="0.7474" style="stop-color:#caf0f8"/>
					<stop  offset="0.8006" style="stop-color:#caf0f8"/>
					<stop  offset="0.8573" style="stop-color:#212121"/>
					<stop  offset="0.9199" style="stop-color:#212121"/>
					<stop  offset="1" style="stop-color:#000000"/>
				</linearGradient>
				<path style="fill:url(#SVGID_00000105414598067571638500000007914055760217759655_);" d="M140.945,436.634
					c-0.98,3.482-1.958,6.962-3.121,10.367c-1.096,3.44-2.307,6.833-3.613,10.184c-2.595,6.71-5.472,13.3-8.796,19.689
					c-3.199,6.445-6.89,12.668-10.895,18.742c-2.006,3.035-4.139,6.009-6.398,8.922c-2.203,2.935-4.604,5.772-7.088,8.569
					c11.203-11.291,21.796-27.035,29.871-45.633C135.448,457.012,138.785,446.585,140.945,436.634z"/>
			</g>
			<g>
				<g>
					<g>
						
							<linearGradient id="SVGID_00000150790814739148362290000006885021064080908177_" gradientUnits="userSpaceOnUse" x1="321.8307" y1="219.6362" x2="471.825" y2="219.6362" gradientTransform="matrix(-1 0 0 -1 750 500)">
							<stop  offset="0" style="stop-color:#666666"/>
							<stop  offset="0.5255" style="stop-color:#3c3c3c"/>
							<stop  offset="1" style="stop-color:#212121"/>
						</linearGradient>
						<polygon style="fill:url(#SVGID_00000150790814739148362290000006885021064080908177_);" points="278.175,180.077 
							291.745,163.406 428.169,380.65 414.6,397.322 						"/>
					</g>
					<g>
						
							<linearGradient id="SVGID_00000175321717847370854840000017836604039699643066_" gradientUnits="userSpaceOnUse" x1="335.4003" y1="211.3004" x2="471.825" y2="211.3004" gradientTransform="matrix(-1 0 0 -1 750 500)">
							<stop  offset="0" style="stop-color:#000000"/>
							<stop  offset="0.0964" style="stop-color:#030303"/>
							<stop  offset="0.167" style="stop-color:#0C0C0C"/>
							<stop  offset="0.2293" style="stop-color:#1C1C1C"/>
							<stop  offset="0.2869" style="stop-color:#333333"/>
							<stop  offset="0.3413" style="stop-color:#505050"/>
							<stop  offset="0.3932" style="stop-color:#747474"/>
							<stop  offset="0.4432" style="stop-color:#9E9E9E"/>
							<stop  offset="0.4904" style="stop-color:#CECECE"/>
							<stop  offset="0.5322" style="stop-color:#FFFFFF"/>
							<stop  offset="0.564" style="stop-color:#D6D6D6"/>
							<stop  offset="0.6083" style="stop-color:#A5A5A5"/>
							<stop  offset="0.6548" style="stop-color:#787878"/>
							<stop  offset="0.7028" style="stop-color:#535353"/>
							<stop  offset="0.7525" style="stop-color:#353535"/>
							<stop  offset="0.8047" style="stop-color:#1E1E1E"/>
							<stop  offset="0.8602" style="stop-color:#0D0D0D"/>
							<stop  offset="0.9215" style="stop-color:#030303"/>
							<stop  offset="1" style="stop-color:#000000"/>
						</linearGradient>
						<polygon style="fill:url(#SVGID_00000175321717847370854840000017836604039699643066_);" points="278.175,180.077 
							359.346,306.135 414.6,397.322 						"/>
					</g>
					<g>
						
							<linearGradient id="SVGID_00000047059655798579626460000015418458156492831104_" gradientUnits="userSpaceOnUse" x1="328.4293" y1="426.8717" x2="444.2999" y2="108.5199" gradientTransform="matrix(-1 0 0 -1 750 500)">
							<stop  offset="0" style="stop-color:#666666"/>
							<stop  offset="0.5255" style="stop-color:#3c3c3c"/>
							<stop  offset="1" style="stop-color:#212121"/>
						</linearGradient>
						<path style="fill:url(#SVGID_00000047059655798579626460000015418458156492831104_);" d="M421.574,433.655L255.425,169.074
							l261.145-61.369L421.574,433.655z M414.6,397.322l78.003-267.633l-214.428,50.388L414.6,397.322"/>
					</g>
					<g>
						
							<linearGradient id="SVGID_00000022554841044690290850000009471595086461173164_" gradientUnits="userSpaceOnUse" x1="357.218" y1="408.9667" x2="357.218" y2="330.9264" gradientTransform="matrix(-1 0 0 -1 750 500)">
							<stop  offset="0" style="stop-color:#666666"/>
							<stop  offset="0.5255" style="stop-color:#3c3c3c"/>
							<stop  offset="1" style="stop-color:#212121"/>
						</linearGradient>
						<polygon style="fill:url(#SVGID_00000022554841044690290850000009471595086461173164_);" points="255.425,169.074 
							268.994,152.402 530.139,91.033 516.57,107.705 						"/>
					</g>
					<g>
						
							<linearGradient id="SVGID_00000046306862873249309080000007833405863269648025_" gradientUnits="userSpaceOnUse" x1="219.8609" y1="237.6559" x2="328.4258" y2="237.6559" gradientTransform="matrix(-1 0 0 -1 750 500)">
							<stop  offset="0" style="stop-color:#212121"/>
							<stop  offset="0.4745" style="stop-color:#3c3c3c"/>
							<stop  offset="1" style="stop-color:#666666"/>
						</linearGradient>
						<polygon style="fill:url(#SVGID_00000046306862873249309080000007833405863269648025_);" points="516.57,107.705 
							530.139,91.033 435.144,416.983 421.574,433.655 						"/>
					</g>
					
						<linearGradient id="SVGID_00000057866077640364046770000018374039729390861194_" gradientUnits="userSpaceOnUse" x1="255.4249" y1="138.3893" x2="516.5695" y2="138.3893">
						<stop  offset="0" style="stop-color:#000000"/>
						<stop  offset="0.0964" style="stop-color:#030303"/>
						<stop  offset="0.167" style="stop-color:#0C0C0C"/>
						<stop  offset="0.2293" style="stop-color:#1C1C1C"/>
						<stop  offset="0.2869" style="stop-color:#333333"/>
						<stop  offset="0.3413" style="stop-color:#505050"/>
						<stop  offset="0.3932" style="stop-color:#747474"/>
						<stop  offset="0.4432" style="stop-color:#9E9E9E"/>
						<stop  offset="0.4904" style="stop-color:#CECECE"/>
						<stop  offset="0.5322" style="stop-color:#FFFFFF"/>
						<stop  offset="0.564" style="stop-color:#D6D6D6"/>
						<stop  offset="0.6083" style="stop-color:#A5A5A5"/>
						<stop  offset="0.6548" style="stop-color:#787878"/>
						<stop  offset="0.7028" style="stop-color:#535353"/>
						<stop  offset="0.7525" style="stop-color:#353535"/>
						<stop  offset="0.8047" style="stop-color:#1E1E1E"/>
						<stop  offset="0.8602" style="stop-color:#0D0D0D"/>
						<stop  offset="0.9215" style="stop-color:#030303"/>
						<stop  offset="1" style="stop-color:#000000"/>
					</linearGradient>
					<polygon style="fill:url(#SVGID_00000057866077640364046770000018374039729390861194_);" points="255.425,169.074 
						516.57,107.705 383.675,140.255 					"/>
				</g>
				<g>
					<polygon style="fill:#FFFFFF;" points="463.106,406.666 409.958,351.651 413.384,357.106 463.237,408.711 464.321,409.833 
						474.181,134.018 472.842,134.333 					"/>
					<polygon style="fill:#FFFFFF;" points="221.439,157.06 220.462,157.402 299.425,239.141 296,233.686 222.854,157.969 
						475.159,69.528 473.918,104.245 475.257,103.931 476.52,68.604 476.553,67.632 					"/>
				</g>
			</g>
		</g>
	</g>
</g>
</svg>
